<svg width="24" height="24" viewBox="0 0 24 24" fill="none" xmlns="http://www.w3.org/2000/svg">
<path d="M4 18C4.53043 18 5.03914 18.2107 5.41421 18.5858C5.78929 18.9609 6 19.4696 6 20C6 20.5304 5.78929 21.0391 5.41421 21.4142C5.03914 21.7893 4.53043 22 4 22C3.46957 22 2.96086 21.7893 2.58579 21.4142C2.21071 21.0391 2 20.5304 2 20C2 19.4696 2.21071 18.9609 2.58579 18.5858C2.96086 18.2107 3.46957 18 4 18ZM4 19.5C3.86739 19.5 3.74021 19.5527 3.64645 19.6464C3.55268 19.7402 3.5 19.8674 3.5 20C3.5 20.1326 3.55268 20.2598 3.64645 20.3536C3.74021 20.4473 3.86739 20.5 4 20.5C4.13261 20.5 4.25979 20.4473 4.35355 20.3536C4.44732 20.2598 4.5 20.1326 4.5 20C4.5 19.8674 4.44732 19.7402 4.35355 19.6464C4.25979 19.5527 4.13261 19.5 4 19.5ZM9.5 15C10.163 15 10.7989 15.2634 11.2678 15.7322C11.7366 16.2011 12 16.837 12 17.5C12 18.163 11.7366 18.7989 11.2678 19.2678C10.7989 19.7366 10.163 20 9.5 20C8.83696 20 8.20107 19.7366 7.73223 19.2678C7.26339 18.7989 7 18.163 7 17.5C7 16.837 7.26339 16.2011 7.73223 15.7322C8.20107 15.2634 8.83696 15 9.5 15ZM9.5 16.5C9.23478 16.5 8.98043 16.6054 8.79289 16.7929C8.60536 16.9804 8.5 17.2348 8.5 17.5C8.5 17.7652 8.60536 18.0196 8.79289 18.2071C8.98043 18.3946 9.23478 18.5 9.5 18.5C9.76522 18.5 10.0196 18.3946 10.2071 18.2071C10.3946 18.0196 10.5 17.7652 10.5 17.5C10.5 17.2348 10.3946 16.9804 10.2071 16.7929C10.0196 16.6054 9.76522 16.5 9.5 16.5ZM11.823 2C13.095 2.00025 14.3263 2.44836 15.3009 3.26572C16.2755 4.08308 16.9312 5.2175 17.153 6.47H17.235C18.2335 6.47 19.1912 6.86667 19.8973 7.57274C20.6033 8.27882 21 9.23646 21 10.235C21 11.2335 20.6033 12.1912 19.8973 12.8973C19.1912 13.6033 18.2335 14 17.235 14H6.412C5.41346 14 4.45582 13.6033 3.74974 12.8973C3.04367 12.1912 2.647 11.2335 2.647 10.235C2.647 9.23646 3.04367 8.27882 3.74974 7.57274C4.45582 6.86667 5.41346 6.47 6.412 6.47H6.493C6.71479 5.2175 7.37049 4.08308 8.34511 3.26572C9.31973 2.44836 10.551 2.00025 11.823 2ZM11.829 3.498C10.8218 3.49773 9.85294 3.8845 9.1228 4.57834C8.39266 5.27219 7.95704 6.22006 7.906 7.226C7.89727 7.40367 7.82056 7.57117 7.69175 7.69384C7.56293 7.81652 7.39188 7.88496 7.214 7.885H6.514C6.20384 7.87382 5.89461 7.92525 5.60477 8.03623C5.31493 8.1472 5.05042 8.31545 4.82705 8.53092C4.60367 8.74638 4.426 9.00466 4.30466 9.29031C4.18331 9.57596 4.12077 9.88314 4.12077 10.1935C4.12077 10.5039 4.18331 10.811 4.30466 11.0967C4.426 11.3823 4.60367 11.6406 4.82705 11.8561C5.05042 12.0716 5.31493 12.2398 5.60477 12.3508C5.89461 12.4618 6.20384 12.5132 6.514 12.502H17.144C17.4542 12.5132 17.7634 12.4618 18.0532 12.3508C18.3431 12.2398 18.6076 12.0716 18.831 11.8561C19.0543 11.6406 19.232 11.3823 19.3533 11.0967C19.4747 10.811 19.5372 10.5039 19.5372 10.1935C19.5372 9.88314 19.4747 9.57596 19.3533 9.29031C19.232 9.00466 19.0543 8.74638 18.831 8.53092C18.6076 8.31545 18.3431 8.1472 18.0532 8.03623C17.7634 7.92525 17.4542 7.87382 17.144 7.885H16.444C16.2661 7.88496 16.0951 7.81652 15.9663 7.69384C15.8374 7.57117 15.7607 7.40367 15.752 7.226C15.701 6.22006 15.2653 5.27219 14.5352 4.57834C13.8051 3.8845 12.8362 3.49773 11.829 3.498Z" fill="#777777"/>
</svg>
